<svg width="1000" height="1000" xmlns="http://www.w3.org/2000/svg">

 <title/>
 <g>
  <title>background</title>
  <rect fill="none" id="canvas_background" height="402" width="582" y="-1" x="-1"/>
 </g>
 <g>
  <title>Layer 1</title>
  <path fill="#3b579d" id="svg_2" d="m500,1000l0,0c-276.1,0 -500,-223.9 -500,-500l0,0c0,-276.1 223.9,-500 500,-500l0,0c276.1,0 500,223.9 500,500l0,0c0,276.1 -223.9,500 -500,500z" class="st0"/>
  <path fill="#ffffff" id="f" d="m630,1000l0,-387.3l130,0l19.5,-150.9l-149.5,0l0,-96.4c0,-43.7 12.1,-73.5 74.8,-73.5l79.9,0l0,-134.9c-13.8,-1.8 -61.3,-5.9 -116.5,-5.9c-115.2,0 -194.1,70.3 -194.1,199.5l0,111.3l-130.3,0l0,150.9l130.3,0l0,387.2l155.9,0z" class="st1"/>
 </g>
</svg>